<svg xmlns="http://www.w3.org/2000/svg" viewBox="0 0 64.23 95.16"><path class="cls-1" d="M43.29,83.15c-2.19,7.8-.66,18.68,4.6,23.88.06-.28.14-.56.22-.83a6.12,6.12,0,0,1,6.23-5.32c3.07.12,4.71,1.77,5.15,5.56a26.44,26.44,0,0,1,.21,4.13v.48a16.09,16.09,0,0,0,2.41,8.74,14.64,14.64,0,0,0,6.24,5.8v-.36l-.22-.35c-2-6.62-.55-11.23,4.81-15.13l1.64-1.19q1.78-1.25,3.51-2.6a19.21,19.21,0,0,0,7.44-13.47,15.82,15.82,0,0,0-.66-7.1L84,86.1l-1.75,1.18a37.78,37.78,0,0,1-24.51,3.2C52.26,89.65,47.12,88.11,43.29,83.15Z" transform="translate(-33.31 -30.43)"/><path class="cls-1" d="M33.31,31.29H47.14c14.25,0,24,6.63,24,23.19S61.39,78.1,47.86,78.1H33.31ZM46.42,68.16c6.76,0,12.09-2.73,12.09-13.68S53.18,41.23,46.42,41.23H45.7V68.16Z" transform="translate(-33.31 -30.43)"/><path class="cls-1" d="M61.53,72.27l7.06-8.5c3.31,2.66,7.49,4.54,11,4.54,3.74,0,5.33-1.23,5.33-3.32S82.49,62,78.53,60.46L72.7,58c-5-2-9.44-6.27-9.44-13,0-8,7.2-14.55,17.43-14.55A22.49,22.49,0,0,1,96.24,36.7l-6.19,7.77c-3.17-2.23-5.9-3.38-9.36-3.38-3,0-4.9,1.08-4.9,3.17s2.67,3,6.92,4.68l5.68,2.23c5.84,2.3,9.15,6.34,9.15,12.82,0,7.92-6.63,15-18.29,15A27.16,27.16,0,0,1,61.53,72.27Z" transform="translate(-33.31 -30.43)"/><style>
        path { fill: #000; }
        @media (prefers-color-scheme: dark) {
            path { fill: #FFF; }
        }
    </style></svg>