<svg version="1.0" xmlns="http://www.w3.org/2000/svg" xmlns:xlink="http://www.w3.org/1999/xlink"
	 viewBox="0 0 100 100" enable-background="new 0 0 100 100" xml:space="preserve">
	
<svg xmlns="http://www.w3.org/2000/svg" xmlns:xlink="http://www.w3.org/1999/xlink" version="1.1" width="100" height="100" viewBox="0 0 2000 2000" x="0" y="0" shape-rendering="crispEdges"><defs/><rect x="0" y="0" width="2000" height="2000" fill="#ffffff"/><svg viewBox="0 0 4 4" x="629" y="173" width="57" height="57" shape-rendering="auto"><circle fill="#000000" cx="2" cy="2" r="1.75"/></svg><svg viewBox="0 0 4 4" x="743" y="173" width="57" height="57" shape-rendering="auto"><circle fill="#000000" cx="2" cy="2" r="1.75"/></svg><svg viewBox="0 0 4 4" x="914" y="173" width="57" height="57" shape-rendering="auto"><circle fill="#000000" cx="2" cy="2" r="1.75"/></svg><svg viewBox="0 0 4 4" x="1256" y="173" width="57" height="57" shape-rendering="auto"><path fill="#000000" d="M2,.25a1.75,1.75,0,0,0,0,3.5H4V.25Z"/></svg><svg viewBox="0 0 4 4" x="1313" y="173" width="57" height="57" shape-rendering="auto"><path fill="#000000" d="M2,3.75A1.75,1.75,0,0,0,2,.25H0v3.5Z"/></svg><svg viewBox="0 0 4 4" x="629" y="230" width="57" height="57" shape-rendering="auto"><circle fill="#000000" cx="2" cy="2" r="1.75"/></svg><svg viewBox="0 0 4 4" x="800" y="230" width="57" height="57" shape-rendering="auto"><path fill="#000000" d="M2,.25a1.75,1.75,0,0,0,0,3.5H4V.25Z"/></svg><svg viewBox="0 0 4 4" x="857" y="230" width="57" height="57" shape-rendering="auto"><path fill="#000000" d="M2,3.75A1.75,1.75,0,0,0,2,.25H0v3.5Z"/></svg><svg viewBox="0 0 4 4" x="971" y="230" width="57" height="57" shape-rendering="auto"><path fill="#000000" d="M2,.25a1.75,1.75,0,0,0,0,3.5H4V.25Z"/></svg><svg viewBox="0 0 4 4" x="1028" y="230" width="57" height="57" shape-rendering="auto"><path fill="#000000" d="M2,3.75A1.75,1.75,0,0,0,2,.25H0v3.5Z"/></svg><svg viewBox="0 0 4 4" x="1142" y="230" width="57" height="57" shape-rendering="auto"><circle fill="#000000" cx="2" cy="2" r="1.75"/></svg><svg viewBox="0 0 4 4" x="1256" y="230" width="57" height="57" shape-rendering="auto"><circle fill="#000000" cx="2" cy="2" r="1.75"/></svg><svg viewBox="0 0 4 4" x="629" y="287" width="57" height="57" shape-rendering="auto"><path fill="#000000" d="M2,.25a1.75,1.75,0,0,0,0,3.5H4V.25Z"/></svg><svg viewBox="0 0 4 4" x="686" y="287" width="57" height="57" shape-rendering="auto"><path fill="#000000" d="M2,3.75A1.75,1.75,0,0,0,2,.25H0v3.5Z"/></svg><svg viewBox="0 0 4 4" x="800" y="287" width="57" height="57" shape-rendering="auto"><circle fill="#000000" cx="2" cy="2" r="1.75"/></svg><svg viewBox="0 0 4 4" x="914" y="287" width="57" height="57" shape-rendering="auto"><circle fill="#000000" cx="2" cy="2" r="1.75"/></svg><svg viewBox="0 0 4 4" x="1028" y="287" width="57" height="57" shape-rendering="auto"><path fill="#000000" d="M2,.25a1.75,1.75,0,0,0,0,3.5H4V.25Z"/></svg><svg viewBox="0 0 4 4" x="1085" y="287" width="57" height="57" shape-rendering="auto"><path fill="#000000" d="M2,3.75A1.75,1.75,0,0,0,2,.25H0v3.5Z"/></svg><svg viewBox="0 0 4 4" x="1256" y="287" width="57" height="57" shape-rendering="auto"><path fill="#000000" d="M2,.25a1.75,1.75,0,0,0,0,3.5H4V.25Z"/></svg><svg viewBox="0 0 4 4" x="1313" y="287" width="57" height="57" shape-rendering="auto"><path fill="#000000" d="M2,3.75A1.75,1.75,0,0,0,2,.25H0v3.5Z"/></svg><svg viewBox="0 0 4 4" x="743" y="344" width="57" height="57" shape-rendering="auto"><circle fill="#000000" cx="2" cy="2" r="1.75"/></svg><svg viewBox="0 0 4 4" x="914" y="344" width="57" height="57" shape-rendering="auto"><path fill="#000000" d="M2,.25a1.75,1.75,0,0,0,0,3.5H4V.25Z"/></svg><svg viewBox="0 0 4 4" x="971" y="344" width="57" height="57" shape-rendering="auto"><rect fill="#000000" y="0.25" width="4" height="3.5"/></svg><svg viewBox="0 0 4 4" x="1028" y="344" width="57" height="57" shape-rendering="auto"><path fill="#000000" d="M2,3.75A1.75,1.75,0,0,0,2,.25H0v3.5Z"/></svg><svg viewBox="0 0 4 4" x="1142" y="344" width="57" height="57" shape-rendering="auto"><path fill="#000000" d="M2,.25a1.75,1.75,0,0,0,0,3.5H4V.25Z"/></svg><svg viewBox="0 0 4 4" x="1199" y="344" width="57" height="57" shape-rendering="auto"><path fill="#000000" d="M2,3.75A1.75,1.75,0,0,0,2,.25H0v3.5Z"/></svg><svg viewBox="0 0 4 4" x="1313" y="344" width="57" height="57" shape-rendering="auto"><circle fill="#000000" cx="2" cy="2" r="1.75"/></svg><svg viewBox="0 0 4 4" x="686" y="401" width="57" height="57" shape-rendering="auto"><path fill="#000000" d="M2,.25a1.75,1.75,0,0,0,0,3.5H4V.25Z"/></svg><svg viewBox="0 0 4 4" x="743" y="401" width="57" height="57" shape-rendering="auto"><path fill="#000000" d="M2,3.75A1.75,1.75,0,0,0,2,.25H0v3.5Z"/></svg><svg viewBox="0 0 4 4" x="857" y="401" width="57" height="57" shape-rendering="auto"><circle fill="#000000" cx="2" cy="2" r="1.75"/></svg><svg viewBox="0 0 4 4" x="1199" y="401" width="57" height="57" shape-rendering="auto"><circle fill="#000000" cx="2" cy="2" r="1.75"/></svg><svg viewBox="0 0 4 4" x="629" y="458" width="57" height="57" shape-rendering="auto"><path fill="#000000" d="M2,.25a1.75,1.75,0,0,0,0,3.5H4V.25Z"/></svg><svg viewBox="0 0 4 4" x="686" y="458" width="57" height="57" shape-rendering="auto"><path fill="#000000" d="M2,3.75A1.75,1.75,0,0,0,2,.25H0v3.5Z"/></svg><svg viewBox="0 0 4 4" x="857" y="458" width="57" height="57" shape-rendering="auto"><circle fill="#000000" cx="2" cy="2" r="1.75"/></svg><svg viewBox="0 0 4 4" x="971" y="458" width="57" height="57" shape-rendering="auto"><path fill="#000000" d="M2,.25a1.75,1.75,0,0,0,0,3.5H4V.25Z"/></svg><svg viewBox="0 0 4 4" x="1028" y="458" width="57" height="57" shape-rendering="auto"><path fill="#000000" d="M2,3.75A1.75,1.75,0,0,0,2,.25H0v3.5Z"/></svg><svg viewBox="0 0 4 4" x="1199" y="458" width="57" height="57" shape-rendering="auto"><circle fill="#000000" cx="2" cy="2" r="1.75"/></svg><svg viewBox="0 0 4 4" x="1313" y="458" width="57" height="57" shape-rendering="auto"><circle fill="#000000" cx="2" cy="2" r="1.75"/></svg><svg viewBox="0 0 4 4" x="629" y="515" width="57" height="57" shape-rendering="auto"><circle fill="#000000" cx="2" cy="2" r="1.75"/></svg><svg viewBox="0 0 4 4" x="743" y="515" width="57" height="57" shape-rendering="auto"><circle fill="#000000" cx="2" cy="2" r="1.75"/></svg><svg viewBox="0 0 4 4" x="857" y="515" width="57" height="57" shape-rendering="auto"><circle fill="#000000" cx="2" cy="2" r="1.75"/></svg><svg viewBox="0 0 4 4" x="971" y="515" width="57" height="57" shape-rendering="auto"><circle fill="#000000" cx="2" cy="2" r="1.75"/></svg><svg viewBox="0 0 4 4" x="1085" y="515" width="57" height="57" shape-rendering="auto"><circle fill="#000000" cx="2" cy="2" r="1.75"/></svg><svg viewBox="0 0 4 4" x="1199" y="515" width="57" height="57" shape-rendering="auto"><circle fill="#000000" cx="2" cy="2" r="1.75"/></svg><svg viewBox="0 0 4 4" x="1313" y="515" width="57" height="57" shape-rendering="auto"><circle fill="#000000" cx="2" cy="2" r="1.75"/></svg><svg viewBox="0 0 4 4" x="629" y="572" width="57" height="57" shape-rendering="auto"><path fill="#000000" d="M2,.25a1.75,1.75,0,0,0,0,3.5H4V.25Z"/></svg><svg viewBox="0 0 4 4" x="686" y="572" width="57" height="57" shape-rendering="auto"><path fill="#000000" d="M2,3.75A1.75,1.75,0,0,0,2,.25H0v3.5Z"/></svg><svg viewBox="0 0 4 4" x="971" y="572" width="57" height="57" shape-rendering="auto"><path fill="#000000" d="M2,.25a1.75,1.75,0,0,0,0,3.5H4V.25Z"/></svg><svg viewBox="0 0 4 4" x="1028" y="572" width="57" height="57" shape-rendering="auto"><rect fill="#000000" y="0.25" width="4" height="3.5"/></svg><svg viewBox="0 0 4 4" x="1085" y="572" width="57" height="57" shape-rendering="auto"><path fill="#000000" d="M2,3.75A1.75,1.75,0,0,0,2,.25H0v3.5Z"/></svg><svg viewBox="0 0 4 4" x="1199" y="572" width="57" height="57" shape-rendering="auto"><path fill="#000000" d="M2,.25a1.75,1.75,0,0,0,0,3.5H4V.25Z"/></svg><svg viewBox="0 0 4 4" x="1256" y="572" width="57" height="57" shape-rendering="auto"><rect fill="#000000" y="0.25" width="4" height="3.5"/></svg><svg viewBox="0 0 4 4" x="1313" y="572" width="57" height="57" shape-rendering="auto"><path fill="#000000" d="M2,3.75A1.75,1.75,0,0,0,2,.25H0v3.5Z"/></svg><svg viewBox="0 0 4 4" x="287" y="629" width="57" height="57" shape-rendering="auto"><path fill="#000000" d="M2,.25a1.75,1.75,0,0,0,0,3.5H4V.25Z"/></svg><svg viewBox="0 0 4 4" x="344" y="629" width="57" height="57" shape-rendering="auto"><rect fill="#000000" y="0.25" width="4" height="3.5"/></svg><svg viewBox="0 0 4 4" x="401" y="629" width="57" height="57" shape-rendering="auto"><path fill="#000000" d="M2,3.75A1.75,1.75,0,0,0,2,.25H0v3.5Z"/></svg><svg viewBox="0 0 4 4" x="515" y="629" width="57" height="57" shape-rendering="auto"><circle fill="#000000" cx="2" cy="2" r="1.75"/></svg><svg viewBox="0 0 4 4" x="629" y="629" width="57" height="57" shape-rendering="auto"><path fill="#000000" d="M2,.25a1.75,1.75,0,0,0,0,3.5H4V.25Z"/></svg><svg viewBox="0 0 4 4" x="686" y="629" width="57" height="57" shape-rendering="auto"><path fill="#000000" d="M2,3.75A1.75,1.75,0,0,0,2,.25H0v3.5Z"/></svg><svg viewBox="0 0 4 4" x="800" y="629" width="57" height="57" shape-rendering="auto"><circle fill="#000000" cx="2" cy="2" r="1.75"/></svg><svg viewBox="0 0 4 4" x="971" y="629" width="57" height="57" shape-rendering="auto"><circle fill="#000000" cx="2" cy="2" r="1.75"/></svg><svg viewBox="0 0 4 4" x="1199" y="629" width="57" height="57" shape-rendering="auto"><circle fill="#000000" cx="2" cy="2" r="1.75"/></svg><svg viewBox="0 0 4 4" x="1313" y="629" width="57" height="57" shape-rendering="auto"><path fill="#000000" d="M2,.25a1.75,1.75,0,0,0,0,3.5H4V.25Z"/></svg><svg viewBox="0 0 4 4" x="1370" y="629" width="57" height="57" shape-rendering="auto"><rect fill="#000000" y="0.25" width="4" height="3.5"/></svg><svg viewBox="0 0 4 4" x="1427" y="629" width="57" height="57" shape-rendering="auto"><rect fill="#000000" y="0.25" width="4" height="3.5"/></svg><svg viewBox="0 0 4 4" x="1484" y="629" width="57" height="57" shape-rendering="auto"><path fill="#000000" d="M2,3.75A1.75,1.75,0,0,0,2,.25H0v3.5Z"/></svg><svg viewBox="0 0 4 4" x="1655" y="629" width="57" height="57" shape-rendering="auto"><path fill="#000000" d="M2,.25a1.75,1.75,0,0,0,0,3.5H4V.25Z"/></svg><svg viewBox="0 0 4 4" x="1712" y="629" width="57" height="57" shape-rendering="auto"><rect fill="#000000" y="0.25" width="4" height="3.5"/></svg><svg viewBox="0 0 4 4" x="1769" y="629" width="57" height="57" shape-rendering="auto"><path fill="#000000" d="M2,3.75A1.75,1.75,0,0,0,2,.25H0v3.5Z"/></svg><svg viewBox="0 0 4 4" x="173" y="686" width="57" height="57" shape-rendering="auto"><path fill="#000000" d="M2,.25a1.75,1.75,0,0,0,0,3.5H4V.25Z"/></svg><svg viewBox="0 0 4 4" x="230" y="686" width="57" height="57" shape-rendering="auto"><rect fill="#000000" y="0.25" width="4" height="3.5"/></svg><svg viewBox="0 0 4 4" x="287" y="686" width="57" height="57" shape-rendering="auto"><rect fill="#000000" y="0.25" width="4" height="3.5"/></svg><svg viewBox="0 0 4 4" x="344" y="686" width="57" height="57" shape-rendering="auto"><rect fill="#000000" y="0.25" width="4" height="3.5"/></svg><svg viewBox="0 0 4 4" x="401" y="686" width="57" height="57" shape-rendering="auto"><path fill="#000000" d="M2,3.75A1.75,1.75,0,0,0,2,.25H0v3.5Z"/></svg><svg viewBox="0 0 4 4" x="572" y="686" width="57" height="57" shape-rendering="auto"><circle fill="#000000" cx="2" cy="2" r="1.75"/></svg><svg viewBox="0 0 4 4" x="1313" y="686" width="57" height="57" shape-rendering="auto"><path fill="#000000" d="M2,.25a1.75,1.75,0,0,0,0,3.5H4V.25Z"/></svg><svg viewBox="0 0 4 4" x="1370" y="686" width="57" height="57" shape-rendering="auto"><rect fill="#000000" y="0.25" width="4" height="3.5"/></svg><svg viewBox="0 0 4 4" x="1427" y="686" width="57" height="57" shape-rendering="auto"><path fill="#000000" d="M2,3.75A1.75,1.75,0,0,0,2,.25H0v3.5Z"/></svg><svg viewBox="0 0 4 4" x="1541" y="686" width="57" height="57" shape-rendering="auto"><circle fill="#000000" cx="2" cy="2" r="1.75"/></svg><svg viewBox="0 0 4 4" x="1712" y="686" width="57" height="57" shape-rendering="auto"><path fill="#000000" d="M2,.25a1.75,1.75,0,0,0,0,3.5H4V.25Z"/></svg><svg viewBox="0 0 4 4" x="1769" y="686" width="57" height="57" shape-rendering="auto"><path fill="#000000" d="M2,3.75A1.75,1.75,0,0,0,2,.25H0v3.5Z"/></svg><svg viewBox="0 0 4 4" x="230" y="743" width="57" height="57" shape-rendering="auto"><circle fill="#000000" cx="2" cy="2" r="1.75"/></svg><svg viewBox="0 0 4 4" x="344" y="743" width="57" height="57" shape-rendering="auto"><path fill="#000000" d="M2,.25a1.75,1.75,0,0,0,0,3.5H4V.25Z"/></svg><svg viewBox="0 0 4 4" x="401" y="743" width="57" height="57" shape-rendering="auto"><rect fill="#000000" y="0.25" width="4" height="3.5"/></svg><svg viewBox="0 0 4 4" x="458" y="743" width="57" height="57" shape-rendering="auto"><rect fill="#000000" y="0.25" width="4" height="3.5"/></svg><svg viewBox="0 0 4 4" x="515" y="743" width="57" height="57" shape-rendering="auto"><rect fill="#000000" y="0.25" width="4" height="3.5"/></svg><svg viewBox="0 0 4 4" x="572" y="743" width="57" height="57" shape-rendering="auto"><rect fill="#000000" y="0.25" width="4" height="3.5"/></svg><svg viewBox="0 0 4 4" x="629" y="743" width="57" height="57" shape-rendering="auto"><path fill="#000000" d="M2,3.75A1.75,1.75,0,0,0,2,.25H0v3.5Z"/></svg><svg viewBox="0 0 4 4" x="1313" y="743" width="57" height="57" shape-rendering="auto"><circle fill="#000000" cx="2" cy="2" r="1.75"/></svg><svg viewBox="0 0 4 4" x="1655" y="743" width="57" height="57" shape-rendering="auto"><circle fill="#000000" cx="2" cy="2" r="1.75"/></svg><svg viewBox="0 0 4 4" x="287" y="800" width="57" height="57" shape-rendering="auto"><path fill="#000000" d="M2,.25a1.75,1.75,0,0,0,0,3.5H4V.25Z"/></svg><svg viewBox="0 0 4 4" x="344" y="800" width="57" height="57" shape-rendering="auto"><rect fill="#000000" y="0.25" width="4" height="3.5"/></svg><svg viewBox="0 0 4 4" x="401" y="800" width="57" height="57" shape-rendering="auto"><rect fill="#000000" y="0.25" width="4" height="3.5"/></svg><svg viewBox="0 0 4 4" x="458" y="800" width="57" height="57" shape-rendering="auto"><path fill="#000000" d="M2,3.75A1.75,1.75,0,0,0,2,.25H0v3.5Z"/></svg><svg viewBox="0 0 4 4" x="572" y="800" width="57" height="57" shape-rendering="auto"><circle fill="#000000" cx="2" cy="2" r="1.75"/></svg><svg viewBox="0 0 4 4" x="1313" y="800" width="57" height="57" shape-rendering="auto"><circle fill="#000000" cx="2" cy="2" r="1.75"/></svg><svg viewBox="0 0 4 4" x="1427" y="800" width="57" height="57" shape-rendering="auto"><path fill="#000000" d="M2,.25a1.75,1.75,0,0,0,0,3.5H4V.25Z"/></svg><svg viewBox="0 0 4 4" x="1484" y="800" width="57" height="57" shape-rendering="auto"><rect fill="#000000" y="0.25" width="4" height="3.5"/></svg><svg viewBox="0 0 4 4" x="1541" y="800" width="57" height="57" shape-rendering="auto"><rect fill="#000000" y="0.25" width="4" height="3.5"/></svg><svg viewBox="0 0 4 4" x="1598" y="800" width="57" height="57" shape-rendering="auto"><rect fill="#000000" y="0.25" width="4" height="3.5"/></svg><svg viewBox="0 0 4 4" x="1655" y="800" width="57" height="57" shape-rendering="auto"><path fill="#000000" d="M2,3.75A1.75,1.75,0,0,0,2,.25H0v3.5Z"/></svg><svg viewBox="0 0 4 4" x="173" y="857" width="57" height="57" shape-rendering="auto"><path fill="#000000" d="M2,.25a1.75,1.75,0,0,0,0,3.5H4V.25Z"/></svg><svg viewBox="0 0 4 4" x="230" y="857" width="57" height="57" shape-rendering="auto"><path fill="#000000" d="M2,3.75A1.75,1.75,0,0,0,2,.25H0v3.5Z"/></svg><svg viewBox="0 0 4 4" x="458" y="857" width="57" height="57" shape-rendering="auto"><path fill="#000000" d="M2,.25a1.75,1.75,0,0,0,0,3.5H4V.25Z"/></svg><svg viewBox="0 0 4 4" x="515" y="857" width="57" height="57" shape-rendering="auto"><path fill="#000000" d="M2,3.75A1.75,1.75,0,0,0,2,.25H0v3.5Z"/></svg><svg viewBox="0 0 4 4" x="1313" y="857" width="57" height="57" shape-rendering="auto"><path fill="#000000" d="M2,.25a1.75,1.75,0,0,0,0,3.5H4V.25Z"/></svg><svg viewBox="0 0 4 4" x="1370" y="857" width="57" height="57" shape-rendering="auto"><path fill="#000000" d="M2,3.75A1.75,1.75,0,0,0,2,.25H0v3.5Z"/></svg><svg viewBox="0 0 4 4" x="1541" y="857" width="57" height="57" shape-rendering="auto"><circle fill="#000000" cx="2" cy="2" r="1.75"/></svg><svg viewBox="0 0 4 4" x="1655" y="857" width="57" height="57" shape-rendering="auto"><path fill="#000000" d="M2,.25a1.75,1.75,0,0,0,0,3.5H4V.25Z"/></svg><svg viewBox="0 0 4 4" x="1712" y="857" width="57" height="57" shape-rendering="auto"><path fill="#000000" d="M2,3.75A1.75,1.75,0,0,0,2,.25H0v3.5Z"/></svg><svg viewBox="0 0 4 4" x="401" y="914" width="57" height="57" shape-rendering="auto"><circle fill="#000000" cx="2" cy="2" r="1.75"/></svg><svg viewBox="0 0 4 4" x="572" y="914" width="57" height="57" shape-rendering="auto"><path fill="#000000" d="M2,.25a1.75,1.75,0,0,0,0,3.5H4V.25Z"/></svg><svg viewBox="0 0 4 4" x="629" y="914" width="57" height="57" shape-rendering="auto"><path fill="#000000" d="M2,3.75A1.75,1.75,0,0,0,2,.25H0v3.5Z"/></svg><svg viewBox="0 0 4 4" x="1313" y="914" width="57" height="57" shape-rendering="auto"><circle fill="#000000" cx="2" cy="2" r="1.75"/></svg><svg viewBox="0 0 4 4" x="1427" y="914" width="57" height="57" shape-rendering="auto"><circle fill="#000000" cx="2" cy="2" r="1.75"/></svg><svg viewBox="0 0 4 4" x="1541" y="914" width="57" height="57" shape-rendering="auto"><path fill="#000000" d="M2,.25a1.75,1.75,0,0,0,0,3.5H4V.25Z"/></svg><svg viewBox="0 0 4 4" x="1598" y="914" width="57" height="57" shape-rendering="auto"><path fill="#000000" d="M2,3.75A1.75,1.75,0,0,0,2,.25H0v3.5Z"/></svg><svg viewBox="0 0 4 4" x="1769" y="914" width="57" height="57" shape-rendering="auto"><circle fill="#000000" cx="2" cy="2" r="1.75"/></svg><svg viewBox="0 0 4 4" x="344" y="971" width="57" height="57" shape-rendering="auto"><circle fill="#000000" cx="2" cy="2" r="1.75"/></svg><svg viewBox="0 0 4 4" x="458" y="971" width="57" height="57" shape-rendering="auto"><path fill="#000000" d="M2,.25a1.75,1.75,0,0,0,0,3.5H4V.25Z"/></svg><svg viewBox="0 0 4 4" x="515" y="971" width="57" height="57" shape-rendering="auto"><rect fill="#000000" y="0.25" width="4" height="3.5"/></svg><svg viewBox="0 0 4 4" x="572" y="971" width="57" height="57" shape-rendering="auto"><rect fill="#000000" y="0.25" width="4" height="3.5"/></svg><svg viewBox="0 0 4 4" x="629" y="971" width="57" height="57" shape-rendering="auto"><path fill="#000000" d="M2,3.75A1.75,1.75,0,0,0,2,.25H0v3.5Z"/></svg><svg viewBox="0 0 4 4" x="1484" y="971" width="57" height="57" shape-rendering="auto"><circle fill="#000000" cx="2" cy="2" r="1.75"/></svg><svg viewBox="0 0 4 4" x="1655" y="971" width="57" height="57" shape-rendering="auto"><circle fill="#000000" cx="2" cy="2" r="1.75"/></svg><svg viewBox="0 0 4 4" x="1769" y="971" width="57" height="57" shape-rendering="auto"><circle fill="#000000" cx="2" cy="2" r="1.75"/></svg><svg viewBox="0 0 4 4" x="173" y="1028" width="57" height="57" shape-rendering="auto"><circle fill="#000000" cx="2" cy="2" r="1.75"/></svg><svg viewBox="0 0 4 4" x="287" y="1028" width="57" height="57" shape-rendering="auto"><circle fill="#000000" cx="2" cy="2" r="1.75"/></svg><svg viewBox="0 0 4 4" x="401" y="1028" width="57" height="57" shape-rendering="auto"><path fill="#000000" d="M2,.25a1.75,1.75,0,0,0,0,3.5H4V.25Z"/></svg><svg viewBox="0 0 4 4" x="458" y="1028" width="57" height="57" shape-rendering="auto"><path fill="#000000" d="M2,3.75A1.75,1.75,0,0,0,2,.25H0v3.5Z"/></svg><svg viewBox="0 0 4 4" x="572" y="1028" width="57" height="57" shape-rendering="auto"><circle fill="#000000" cx="2" cy="2" r="1.75"/></svg><svg viewBox="0 0 4 4" x="1370" y="1028" width="57" height="57" shape-rendering="auto"><path fill="#000000" d="M2,.25a1.75,1.75,0,0,0,0,3.5H4V.25Z"/></svg><svg viewBox="0 0 4 4" x="1427" y="1028" width="57" height="57" shape-rendering="auto"><rect fill="#000000" y="0.25" width="4" height="3.5"/></svg><svg viewBox="0 0 4 4" x="1484" y="1028" width="57" height="57" shape-rendering="auto"><rect fill="#000000" y="0.25" width="4" height="3.5"/></svg><svg viewBox="0 0 4 4" x="1541" y="1028" width="57" height="57" shape-rendering="auto"><path fill="#000000" d="M2,3.75A1.75,1.75,0,0,0,2,.25H0v3.5Z"/></svg><svg viewBox="0 0 4 4" x="1655" y="1028" width="57" height="57" shape-rendering="auto"><path fill="#000000" d="M2,.25a1.75,1.75,0,0,0,0,3.5H4V.25Z"/></svg><svg viewBox="0 0 4 4" x="1712" y="1028" width="57" height="57" shape-rendering="auto"><rect fill="#000000" y="0.25" width="4" height="3.5"/></svg><svg viewBox="0 0 4 4" x="1769" y="1028" width="57" height="57" shape-rendering="auto"><path fill="#000000" d="M2,3.75A1.75,1.75,0,0,0,2,.25H0v3.5Z"/></svg><svg viewBox="0 0 4 4" x="401" y="1085" width="57" height="57" shape-rendering="auto"><path fill="#000000" d="M2,.25a1.75,1.75,0,0,0,0,3.5H4V.25Z"/></svg><svg viewBox="0 0 4 4" x="458" y="1085" width="57" height="57" shape-rendering="auto"><rect fill="#000000" y="0.25" width="4" height="3.5"/></svg><svg viewBox="0 0 4 4" x="515" y="1085" width="57" height="57" shape-rendering="auto"><rect fill="#000000" y="0.25" width="4" height="3.5"/></svg><svg viewBox="0 0 4 4" x="572" y="1085" width="57" height="57" shape-rendering="auto"><path fill="#000000" d="M2,3.75A1.75,1.75,0,0,0,2,.25H0v3.5Z"/></svg><svg viewBox="0 0 4 4" x="1484" y="1085" width="57" height="57" shape-rendering="auto"><circle fill="#000000" cx="2" cy="2" r="1.75"/></svg><svg viewBox="0 0 4 4" x="173" y="1142" width="57" height="57" shape-rendering="auto"><circle fill="#000000" cx="2" cy="2" r="1.75"/></svg><svg viewBox="0 0 4 4" x="287" y="1142" width="57" height="57" shape-rendering="auto"><circle fill="#000000" cx="2" cy="2" r="1.75"/></svg><svg viewBox="0 0 4 4" x="458" y="1142" width="57" height="57" shape-rendering="auto"><circle fill="#000000" cx="2" cy="2" r="1.75"/></svg><svg viewBox="0 0 4 4" x="572" y="1142" width="57" height="57" shape-rendering="auto"><circle fill="#000000" cx="2" cy="2" r="1.75"/></svg><svg viewBox="0 0 4 4" x="1313" y="1142" width="57" height="57" shape-rendering="auto"><circle fill="#000000" cx="2" cy="2" r="1.75"/></svg><svg viewBox="0 0 4 4" x="1484" y="1142" width="57" height="57" shape-rendering="auto"><circle fill="#000000" cx="2" cy="2" r="1.75"/></svg><svg viewBox="0 0 4 4" x="1598" y="1142" width="57" height="57" shape-rendering="auto"><circle fill="#000000" cx="2" cy="2" r="1.75"/></svg><svg viewBox="0 0 4 4" x="1712" y="1142" width="57" height="57" shape-rendering="auto"><circle fill="#000000" cx="2" cy="2" r="1.75"/></svg><svg viewBox="0 0 4 4" x="173" y="1199" width="57" height="57" shape-rendering="auto"><circle fill="#000000" cx="2" cy="2" r="1.75"/></svg><svg viewBox="0 0 4 4" x="344" y="1199" width="57" height="57" shape-rendering="auto"><path fill="#000000" d="M2,.25a1.75,1.75,0,0,0,0,3.5H4V.25Z"/></svg><svg viewBox="0 0 4 4" x="401" y="1199" width="57" height="57" shape-rendering="auto"><path fill="#000000" d="M2,3.75A1.75,1.75,0,0,0,2,.25H0v3.5Z"/></svg><svg viewBox="0 0 4 4" x="515" y="1199" width="57" height="57" shape-rendering="auto"><circle fill="#000000" cx="2" cy="2" r="1.75"/></svg><svg viewBox="0 0 4 4" x="1370" y="1199" width="57" height="57" shape-rendering="auto"><circle fill="#000000" cx="2" cy="2" r="1.75"/></svg><svg viewBox="0 0 4 4" x="1655" y="1199" width="57" height="57" shape-rendering="auto"><circle fill="#000000" cx="2" cy="2" r="1.75"/></svg><svg viewBox="0 0 4 4" x="173" y="1256" width="57" height="57" shape-rendering="auto"><circle fill="#000000" cx="2" cy="2" r="1.75"/></svg><svg viewBox="0 0 4 4" x="344" y="1256" width="57" height="57" shape-rendering="auto"><circle fill="#000000" cx="2" cy="2" r="1.75"/></svg><svg viewBox="0 0 4 4" x="458" y="1256" width="57" height="57" shape-rendering="auto"><circle fill="#000000" cx="2" cy="2" r="1.75"/></svg><svg viewBox="0 0 4 4" x="1313" y="1256" width="57" height="57" shape-rendering="auto"><circle fill="#000000" cx="2" cy="2" r="1.75"/></svg><svg viewBox="0 0 4 4" x="1427" y="1256" width="57" height="57" shape-rendering="auto"><circle fill="#000000" cx="2" cy="2" r="1.75"/></svg><svg viewBox="0 0 4 4" x="1541" y="1256" width="57" height="57" shape-rendering="auto"><path fill="#000000" d="M2,.25a1.75,1.75,0,0,0,0,3.5H4V.25Z"/></svg><svg viewBox="0 0 4 4" x="1598" y="1256" width="57" height="57" shape-rendering="auto"><path fill="#000000" d="M2,3.75A1.75,1.75,0,0,0,2,.25H0v3.5Z"/></svg><svg viewBox="0 0 4 4" x="1712" y="1256" width="57" height="57" shape-rendering="auto"><path fill="#000000" d="M2,.25a1.75,1.75,0,0,0,0,3.5H4V.25Z"/></svg><svg viewBox="0 0 4 4" x="1769" y="1256" width="57" height="57" shape-rendering="auto"><path fill="#000000" d="M2,3.75A1.75,1.75,0,0,0,2,.25H0v3.5Z"/></svg><svg viewBox="0 0 4 4" x="173" y="1313" width="57" height="57" shape-rendering="auto"><circle fill="#000000" cx="2" cy="2" r="1.75"/></svg><svg viewBox="0 0 4 4" x="344" y="1313" width="57" height="57" shape-rendering="auto"><circle fill="#000000" cx="2" cy="2" r="1.75"/></svg><svg viewBox="0 0 4 4" x="515" y="1313" width="57" height="57" shape-rendering="auto"><path fill="#000000" d="M2,.25a1.75,1.75,0,0,0,0,3.5H4V.25Z"/></svg><svg viewBox="0 0 4 4" x="572" y="1313" width="57" height="57" shape-rendering="auto"><path fill="#000000" d="M2,3.75A1.75,1.75,0,0,0,2,.25H0v3.5Z"/></svg><svg viewBox="0 0 4 4" x="800" y="1313" width="57" height="57" shape-rendering="auto"><path fill="#000000" d="M2,.25a1.75,1.75,0,0,0,0,3.5H4V.25Z"/></svg><svg viewBox="0 0 4 4" x="857" y="1313" width="57" height="57" shape-rendering="auto"><rect fill="#000000" y="0.25" width="4" height="3.5"/></svg><svg viewBox="0 0 4 4" x="914" y="1313" width="57" height="57" shape-rendering="auto"><path fill="#000000" d="M2,3.75A1.75,1.75,0,0,0,2,.25H0v3.5Z"/></svg><svg viewBox="0 0 4 4" x="1199" y="1313" width="57" height="57" shape-rendering="auto"><circle fill="#000000" cx="2" cy="2" r="1.75"/></svg><svg viewBox="0 0 4 4" x="1313" y="1313" width="57" height="57" shape-rendering="auto"><path fill="#000000" d="M2,.25a1.75,1.75,0,0,0,0,3.5H4V.25Z"/></svg><svg viewBox="0 0 4 4" x="1370" y="1313" width="57" height="57" shape-rendering="auto"><rect fill="#000000" y="0.25" width="4" height="3.5"/></svg><svg viewBox="0 0 4 4" x="1427" y="1313" width="57" height="57" shape-rendering="auto"><rect fill="#000000" y="0.25" width="4" height="3.5"/></svg><svg viewBox="0 0 4 4" x="1484" y="1313" width="57" height="57" shape-rendering="auto"><rect fill="#000000" y="0.25" width="4" height="3.5"/></svg><svg viewBox="0 0 4 4" x="1541" y="1313" width="57" height="57" shape-rendering="auto"><path fill="#000000" d="M2,3.75A1.75,1.75,0,0,0,2,.25H0v3.5Z"/></svg><svg viewBox="0 0 4 4" x="1712" y="1313" width="57" height="57" shape-rendering="auto"><path fill="#000000" d="M2,.25a1.75,1.75,0,0,0,0,3.5H4V.25Z"/></svg><svg viewBox="0 0 4 4" x="1769" y="1313" width="57" height="57" shape-rendering="auto"><path fill="#000000" d="M2,3.75A1.75,1.75,0,0,0,2,.25H0v3.5Z"/></svg><svg viewBox="0 0 4 4" x="629" y="1370" width="57" height="57" shape-rendering="auto"><circle fill="#000000" cx="2" cy="2" r="1.75"/></svg><svg viewBox="0 0 4 4" x="857" y="1370" width="57" height="57" shape-rendering="auto"><path fill="#000000" d="M2,.25a1.75,1.75,0,0,0,0,3.5H4V.25Z"/></svg><svg viewBox="0 0 4 4" x="914" y="1370" width="57" height="57" shape-rendering="auto"><rect fill="#000000" y="0.25" width="4" height="3.5"/></svg><svg viewBox="0 0 4 4" x="971" y="1370" width="57" height="57" shape-rendering="auto"><rect fill="#000000" y="0.25" width="4" height="3.5"/></svg><svg viewBox="0 0 4 4" x="1028" y="1370" width="57" height="57" shape-rendering="auto"><rect fill="#000000" y="0.25" width="4" height="3.5"/></svg><svg viewBox="0 0 4 4" x="1085" y="1370" width="57" height="57" shape-rendering="auto"><path fill="#000000" d="M2,3.75A1.75,1.75,0,0,0,2,.25H0v3.5Z"/></svg><svg viewBox="0 0 4 4" x="1199" y="1370" width="57" height="57" shape-rendering="auto"><path fill="#000000" d="M2,.25a1.75,1.75,0,0,0,0,3.5H4V.25Z"/></svg><svg viewBox="0 0 4 4" x="1256" y="1370" width="57" height="57" shape-rendering="auto"><rect fill="#000000" y="0.25" width="4" height="3.5"/></svg><svg viewBox="0 0 4 4" x="1313" y="1370" width="57" height="57" shape-rendering="auto"><path fill="#000000" d="M2,3.75A1.75,1.75,0,0,0,2,.25H0v3.5Z"/></svg><svg viewBox="0 0 4 4" x="1541" y="1370" width="57" height="57" shape-rendering="auto"><path fill="#000000" d="M2,.25a1.75,1.75,0,0,0,0,3.5H4V.25Z"/></svg><svg viewBox="0 0 4 4" x="1598" y="1370" width="57" height="57" shape-rendering="auto"><path fill="#000000" d="M2,3.75A1.75,1.75,0,0,0,2,.25H0v3.5Z"/></svg><svg viewBox="0 0 4 4" x="1769" y="1370" width="57" height="57" shape-rendering="auto"><circle fill="#000000" cx="2" cy="2" r="1.75"/></svg><svg viewBox="0 0 4 4" x="914" y="1427" width="57" height="57" shape-rendering="auto"><path fill="#000000" d="M2,.25a1.75,1.75,0,0,0,0,3.5H4V.25Z"/></svg><svg viewBox="0 0 4 4" x="971" y="1427" width="57" height="57" shape-rendering="auto"><path fill="#000000" d="M2,3.75A1.75,1.75,0,0,0,2,.25H0v3.5Z"/></svg><svg viewBox="0 0 4 4" x="1142" y="1427" width="57" height="57" shape-rendering="auto"><circle fill="#000000" cx="2" cy="2" r="1.75"/></svg><svg viewBox="0 0 4 4" x="1256" y="1427" width="57" height="57" shape-rendering="auto"><path fill="#000000" d="M2,.25a1.75,1.75,0,0,0,0,3.5H4V.25Z"/></svg><svg viewBox="0 0 4 4" x="1313" y="1427" width="57" height="57" shape-rendering="auto"><path fill="#000000" d="M2,3.75A1.75,1.75,0,0,0,2,.25H0v3.5Z"/></svg><svg viewBox="0 0 4 4" x="1427" y="1427" width="57" height="57" shape-rendering="auto"><circle fill="#000000" cx="2" cy="2" r="1.75"/></svg><svg viewBox="0 0 4 4" x="1541" y="1427" width="57" height="57" shape-rendering="auto"><path fill="#000000" d="M2,.25a1.75,1.75,0,0,0,0,3.5H4V.25Z"/></svg><svg viewBox="0 0 4 4" x="1598" y="1427" width="57" height="57" shape-rendering="auto"><rect fill="#000000" y="0.25" width="4" height="3.5"/></svg><svg viewBox="0 0 4 4" x="1655" y="1427" width="57" height="57" shape-rendering="auto"><rect fill="#000000" y="0.25" width="4" height="3.5"/></svg><svg viewBox="0 0 4 4" x="1712" y="1427" width="57" height="57" shape-rendering="auto"><path fill="#000000" d="M2,3.75A1.75,1.75,0,0,0,2,.25H0v3.5Z"/></svg><svg viewBox="0 0 4 4" x="971" y="1484" width="57" height="57" shape-rendering="auto"><circle fill="#000000" cx="2" cy="2" r="1.75"/></svg><svg viewBox="0 0 4 4" x="1142" y="1484" width="57" height="57" shape-rendering="auto"><circle fill="#000000" cx="2" cy="2" r="1.75"/></svg><svg viewBox="0 0 4 4" x="1256" y="1484" width="57" height="57" shape-rendering="auto"><path fill="#000000" d="M2,.25a1.75,1.75,0,0,0,0,3.5H4V.25Z"/></svg><svg viewBox="0 0 4 4" x="1313" y="1484" width="57" height="57" shape-rendering="auto"><path fill="#000000" d="M2,3.75A1.75,1.75,0,0,0,2,.25H0v3.5Z"/></svg><svg viewBox="0 0 4 4" x="1541" y="1484" width="57" height="57" shape-rendering="auto"><path fill="#000000" d="M2,.25a1.75,1.75,0,0,0,0,3.5H4V.25Z"/></svg><svg viewBox="0 0 4 4" x="1598" y="1484" width="57" height="57" shape-rendering="auto"><path fill="#000000" d="M2,3.75A1.75,1.75,0,0,0,2,.25H0v3.5Z"/></svg><svg viewBox="0 0 4 4" x="1712" y="1484" width="57" height="57" shape-rendering="auto"><path fill="#000000" d="M2,.25a1.75,1.75,0,0,0,0,3.5H4V.25Z"/></svg><svg viewBox="0 0 4 4" x="1769" y="1484" width="57" height="57" shape-rendering="auto"><path fill="#000000" d="M2,3.75A1.75,1.75,0,0,0,2,.25H0v3.5Z"/></svg><svg viewBox="0 0 4 4" x="629" y="1541" width="57" height="57" shape-rendering="auto"><path fill="#000000" d="M2,.25a1.75,1.75,0,0,0,0,3.5H4V.25Z"/></svg><svg viewBox="0 0 4 4" x="686" y="1541" width="57" height="57" shape-rendering="auto"><rect fill="#000000" y="0.25" width="4" height="3.5"/></svg><svg viewBox="0 0 4 4" x="743" y="1541" width="57" height="57" shape-rendering="auto"><rect fill="#000000" y="0.25" width="4" height="3.5"/></svg><svg viewBox="0 0 4 4" x="800" y="1541" width="57" height="57" shape-rendering="auto"><path fill="#000000" d="M2,3.75A1.75,1.75,0,0,0,2,.25H0v3.5Z"/></svg><svg viewBox="0 0 4 4" x="914" y="1541" width="57" height="57" shape-rendering="auto"><circle fill="#000000" cx="2" cy="2" r="1.75"/></svg><svg viewBox="0 0 4 4" x="1028" y="1541" width="57" height="57" shape-rendering="auto"><path fill="#000000" d="M2,.25a1.75,1.75,0,0,0,0,3.5H4V.25Z"/></svg><svg viewBox="0 0 4 4" x="1085" y="1541" width="57" height="57" shape-rendering="auto"><rect fill="#000000" y="0.25" width="4" height="3.5"/></svg><svg viewBox="0 0 4 4" x="1142" y="1541" width="57" height="57" shape-rendering="auto"><path fill="#000000" d="M2,3.75A1.75,1.75,0,0,0,2,.25H0v3.5Z"/></svg><svg viewBox="0 0 4 4" x="1256" y="1541" width="57" height="57" shape-rendering="auto"><path fill="#000000" d="M2,.25a1.75,1.75,0,0,0,0,3.5H4V.25Z"/></svg><svg viewBox="0 0 4 4" x="1313" y="1541" width="57" height="57" shape-rendering="auto"><rect fill="#000000" y="0.25" width="4" height="3.5"/></svg><svg viewBox="0 0 4 4" x="1370" y="1541" width="57" height="57" shape-rendering="auto"><rect fill="#000000" y="0.25" width="4" height="3.5"/></svg><svg viewBox="0 0 4 4" x="1427" y="1541" width="57" height="57" shape-rendering="auto"><rect fill="#000000" y="0.25" width="4" height="3.5"/></svg><svg viewBox="0 0 4 4" x="1484" y="1541" width="57" height="57" shape-rendering="auto"><rect fill="#000000" y="0.25" width="4" height="3.5"/></svg><svg viewBox="0 0 4 4" x="1541" y="1541" width="57" height="57" shape-rendering="auto"><path fill="#000000" d="M2,3.75A1.75,1.75,0,0,0,2,.25H0v3.5Z"/></svg><svg viewBox="0 0 4 4" x="629" y="1598" width="57" height="57" shape-rendering="auto"><path fill="#000000" d="M2,.25a1.75,1.75,0,0,0,0,3.5H4V.25Z"/></svg><svg viewBox="0 0 4 4" x="686" y="1598" width="57" height="57" shape-rendering="auto"><rect fill="#000000" y="0.25" width="4" height="3.5"/></svg><svg viewBox="0 0 4 4" x="743" y="1598" width="57" height="57" shape-rendering="auto"><path fill="#000000" d="M2,3.75A1.75,1.75,0,0,0,2,.25H0v3.5Z"/></svg><svg viewBox="0 0 4 4" x="857" y="1598" width="57" height="57" shape-rendering="auto"><path fill="#000000" d="M2,.25a1.75,1.75,0,0,0,0,3.5H4V.25Z"/></svg><svg viewBox="0 0 4 4" x="914" y="1598" width="57" height="57" shape-rendering="auto"><rect fill="#000000" y="0.25" width="4" height="3.5"/></svg><svg viewBox="0 0 4 4" x="971" y="1598" width="57" height="57" shape-rendering="auto"><path fill="#000000" d="M2,3.75A1.75,1.75,0,0,0,2,.25H0v3.5Z"/></svg><svg viewBox="0 0 4 4" x="1142" y="1598" width="57" height="57" shape-rendering="auto"><path fill="#000000" d="M2,.25a1.75,1.75,0,0,0,0,3.5H4V.25Z"/></svg><svg viewBox="0 0 4 4" x="1199" y="1598" width="57" height="57" shape-rendering="auto"><path fill="#000000" d="M2,3.75A1.75,1.75,0,0,0,2,.25H0v3.5Z"/></svg><svg viewBox="0 0 4 4" x="1313" y="1598" width="57" height="57" shape-rendering="auto"><path fill="#000000" d="M2,.25a1.75,1.75,0,0,0,0,3.5H4V.25Z"/></svg><svg viewBox="0 0 4 4" x="1370" y="1598" width="57" height="57" shape-rendering="auto"><rect fill="#000000" y="0.25" width="4" height="3.5"/></svg><svg viewBox="0 0 4 4" x="1427" y="1598" width="57" height="57" shape-rendering="auto"><path fill="#000000" d="M2,3.75A1.75,1.75,0,0,0,2,.25H0v3.5Z"/></svg><svg viewBox="0 0 4 4" x="1541" y="1598" width="57" height="57" shape-rendering="auto"><path fill="#000000" d="M2,.25a1.75,1.75,0,0,0,0,3.5H4V.25Z"/></svg><svg viewBox="0 0 4 4" x="1598" y="1598" width="57" height="57" shape-rendering="auto"><path fill="#000000" d="M2,3.75A1.75,1.75,0,0,0,2,.25H0v3.5Z"/></svg><svg viewBox="0 0 4 4" x="629" y="1655" width="57" height="57" shape-rendering="auto"><path fill="#000000" d="M2,.25a1.75,1.75,0,0,0,0,3.5H4V.25Z"/></svg><svg viewBox="0 0 4 4" x="686" y="1655" width="57" height="57" shape-rendering="auto"><path fill="#000000" d="M2,3.75A1.75,1.75,0,0,0,2,.25H0v3.5Z"/></svg><svg viewBox="0 0 4 4" x="914" y="1655" width="57" height="57" shape-rendering="auto"><path fill="#000000" d="M2,.25a1.75,1.75,0,0,0,0,3.5H4V.25Z"/></svg><svg viewBox="0 0 4 4" x="971" y="1655" width="57" height="57" shape-rendering="auto"><path fill="#000000" d="M2,3.75A1.75,1.75,0,0,0,2,.25H0v3.5Z"/></svg><svg viewBox="0 0 4 4" x="1085" y="1655" width="57" height="57" shape-rendering="auto"><path fill="#000000" d="M2,.25a1.75,1.75,0,0,0,0,3.5H4V.25Z"/></svg><svg viewBox="0 0 4 4" x="1142" y="1655" width="57" height="57" shape-rendering="auto"><rect fill="#000000" y="0.25" width="4" height="3.5"/></svg><svg viewBox="0 0 4 4" x="1199" y="1655" width="57" height="57" shape-rendering="auto"><path fill="#000000" d="M2,3.75A1.75,1.75,0,0,0,2,.25H0v3.5Z"/></svg><svg viewBox="0 0 4 4" x="1370" y="1655" width="57" height="57" shape-rendering="auto"><path fill="#000000" d="M2,.25a1.75,1.75,0,0,0,0,3.5H4V.25Z"/></svg><svg viewBox="0 0 4 4" x="1427" y="1655" width="57" height="57" shape-rendering="auto"><rect fill="#000000" y="0.25" width="4" height="3.5"/></svg><svg viewBox="0 0 4 4" x="1484" y="1655" width="57" height="57" shape-rendering="auto"><rect fill="#000000" y="0.25" width="4" height="3.5"/></svg><svg viewBox="0 0 4 4" x="1541" y="1655" width="57" height="57" shape-rendering="auto"><path fill="#000000" d="M2,3.75A1.75,1.75,0,0,0,2,.25H0v3.5Z"/></svg><svg viewBox="0 0 4 4" x="1655" y="1655" width="57" height="57" shape-rendering="auto"><path fill="#000000" d="M2,.25a1.75,1.75,0,0,0,0,3.5H4V.25Z"/></svg><svg viewBox="0 0 4 4" x="1712" y="1655" width="57" height="57" shape-rendering="auto"><path fill="#000000" d="M2,3.75A1.75,1.75,0,0,0,2,.25H0v3.5Z"/></svg><svg viewBox="0 0 4 4" x="686" y="1712" width="57" height="57" shape-rendering="auto"><circle fill="#000000" cx="2" cy="2" r="1.75"/></svg><svg viewBox="0 0 4 4" x="857" y="1712" width="57" height="57" shape-rendering="auto"><circle fill="#000000" cx="2" cy="2" r="1.75"/></svg><svg viewBox="0 0 4 4" x="971" y="1712" width="57" height="57" shape-rendering="auto"><circle fill="#000000" cx="2" cy="2" r="1.75"/></svg><svg viewBox="0 0 4 4" x="1085" y="1712" width="57" height="57" shape-rendering="auto"><path fill="#000000" d="M2,.25a1.75,1.75,0,0,0,0,3.5H4V.25Z"/></svg><svg viewBox="0 0 4 4" x="1142" y="1712" width="57" height="57" shape-rendering="auto"><rect fill="#000000" y="0.25" width="4" height="3.5"/></svg><svg viewBox="0 0 4 4" x="1199" y="1712" width="57" height="57" shape-rendering="auto"><path fill="#000000" d="M2,3.75A1.75,1.75,0,0,0,2,.25H0v3.5Z"/></svg><svg viewBox="0 0 4 4" x="1484" y="1712" width="57" height="57" shape-rendering="auto"><circle fill="#000000" cx="2" cy="2" r="1.75"/></svg><svg viewBox="0 0 4 4" x="1598" y="1712" width="57" height="57" shape-rendering="auto"><circle fill="#000000" cx="2" cy="2" r="1.75"/></svg><svg viewBox="0 0 4 4" x="1769" y="1712" width="57" height="57" shape-rendering="auto"><circle fill="#000000" cx="2" cy="2" r="1.75"/></svg><svg viewBox="0 0 4 4" x="743" y="1769" width="57" height="57" shape-rendering="auto"><path fill="#000000" d="M2,.25a1.75,1.75,0,0,0,0,3.5H4V.25Z"/></svg><svg viewBox="0 0 4 4" x="800" y="1769" width="57" height="57" shape-rendering="auto"><path fill="#000000" d="M2,3.75A1.75,1.75,0,0,0,2,.25H0v3.5Z"/></svg><svg viewBox="0 0 4 4" x="971" y="1769" width="57" height="57" shape-rendering="auto"><circle fill="#000000" cx="2" cy="2" r="1.75"/></svg><svg viewBox="0 0 4 4" x="1142" y="1769" width="57" height="57" shape-rendering="auto"><path fill="#000000" d="M2,.25a1.75,1.75,0,0,0,0,3.5H4V.25Z"/></svg><svg viewBox="0 0 4 4" x="1199" y="1769" width="57" height="57" shape-rendering="auto"><path fill="#000000" d="M2,3.75A1.75,1.75,0,0,0,2,.25H0v3.5Z"/></svg><svg viewBox="0 0 4 4" x="1313" y="1769" width="57" height="57" shape-rendering="auto"><circle fill="#000000" cx="2" cy="2" r="1.75"/></svg><svg viewBox="0 0 4 4" x="1427" y="1769" width="57" height="57" shape-rendering="auto"><path fill="#000000" d="M2,.25a1.75,1.75,0,0,0,0,3.5H4V.25Z"/></svg><svg viewBox="0 0 4 4" x="1484" y="1769" width="57" height="57" shape-rendering="auto"><rect fill="#000000" y="0.25" width="4" height="3.5"/></svg><svg viewBox="0 0 4 4" x="1541" y="1769" width="57" height="57" shape-rendering="auto"><rect fill="#000000" y="0.25" width="4" height="3.5"/></svg><svg viewBox="0 0 4 4" x="1598" y="1769" width="57" height="57" shape-rendering="auto"><path fill="#000000" d="M2,3.75A1.75,1.75,0,0,0,2,.25H0v3.5Z"/></svg><svg version="1.1" id="Ebene_1" x="173" y="173" viewBox="0 0 700 700" style="enable-background:new 0 0 700 700;" xml:space="preserve" width="399" height="399" shape-rendering="auto">

<path fill="#000000" d="M21.2-0.1C9.5-0.1-0.1,9.5-0.1,21.2v78.8v100v100v100v100v100v78.8c0,11.7,9.5,21.3,21.3,21.3h657.6  c11.7,0,21.3-9.5,21.3-21.3V600V500V400V300V200v-100V21.2c0-11.7-9.5-21.3-21.3-21.3H21.2z M600,200v100v100v100v87.8  c0,6.8-5.5,12.2-12.2,12.2H112.2c-6.8,0-12.2-5.5-12.2-12.2V500V400V300V200v-87.8c0-6.8,5.5-12.2,12.2-12.2h475.6  c6.8,0,12.2,5.5,12.2,12.2V200z"/>
</svg>
<svg version="1.1" id="Ebene_1" x="173" y="173" viewBox="0 0 700 700" style="enable-background:new 0 0 700 700;" xml:space="preserve" width="399" height="399" shape-rendering="auto">

<path fill="#000000" d="M500,400V300v-78.8c0-11.7-9.5-21.3-21.3-21.3H221.2c-11.7,0-21.3,9.5-21.3,21.3V300v100v78.8    c0,11.7,9.5,21.3,21.3,21.3h257.5c11.7,0,21.3-9.5,21.3-21.3V400z"/>
</svg>
<svg version="1.1" id="Ebene_1" x="1427" y="173" viewBox="0 0 700 700" style="enable-background:new 0 0 700 700;" xml:space="preserve" width="399" height="399" shape-rendering="auto">

<path fill="#000000" d="M21.2-0.1C9.5-0.1-0.1,9.5-0.1,21.2v78.8v100v100v100v100v100v78.8c0,11.7,9.5,21.3,21.3,21.3h657.6  c11.7,0,21.3-9.5,21.3-21.3V600V500V400V300V200v-100V21.2c0-11.7-9.5-21.3-21.3-21.3H21.2z M600,200v100v100v100v87.8  c0,6.8-5.5,12.2-12.2,12.2H112.2c-6.8,0-12.2-5.5-12.2-12.2V500V400V300V200v-87.8c0-6.8,5.5-12.2,12.2-12.2h475.6  c6.8,0,12.2,5.5,12.2,12.2V200z"/>
</svg>
<svg version="1.1" id="Ebene_1" x="1427" y="173" viewBox="0 0 700 700" style="enable-background:new 0 0 700 700;" xml:space="preserve" width="399" height="399" shape-rendering="auto">

<path fill="#000000" d="M500,400V300v-78.8c0-11.7-9.5-21.3-21.3-21.3H221.2c-11.7,0-21.3,9.5-21.3,21.3V300v100v78.8    c0,11.7,9.5,21.3,21.3,21.3h257.5c11.7,0,21.3-9.5,21.3-21.3V400z"/>
</svg>
<svg version="1.1" id="Ebene_1" x="173" y="1427" viewBox="0 0 700 700" style="enable-background:new 0 0 700 700;" xml:space="preserve" width="399" height="399" shape-rendering="auto">

<path fill="#000000" d="M21.2-0.1C9.5-0.1-0.1,9.5-0.1,21.2v78.8v100v100v100v100v100v78.8c0,11.7,9.5,21.3,21.3,21.3h657.6  c11.7,0,21.3-9.5,21.3-21.3V600V500V400V300V200v-100V21.2c0-11.7-9.5-21.3-21.3-21.3H21.2z M600,200v100v100v100v87.8  c0,6.8-5.5,12.2-12.2,12.2H112.2c-6.8,0-12.2-5.5-12.2-12.2V500V400V300V200v-87.8c0-6.8,5.5-12.2,12.2-12.2h475.6  c6.8,0,12.2,5.5,12.2,12.2V200z"/>
</svg>
<svg version="1.1" id="Ebene_1" x="173" y="1427" viewBox="0 0 700 700" style="enable-background:new 0 0 700 700;" xml:space="preserve" width="399" height="399" shape-rendering="auto">

<path fill="#000000" d="M500,400V300v-78.8c0-11.7-9.5-21.3-21.3-21.3H221.2c-11.7,0-21.3,9.5-21.3,21.3V300v100v78.8    c0,11.7,9.5,21.3,21.3,21.3h257.5c11.7,0,21.3-9.5,21.3-21.3V400z"/>
</svg>
<svg version="1.0" id="Layer_1" x="714" y="714" viewBox="0 0 700 700" enable-background="new 0 0 700 700" xml:space="preserve" width="570" height="570" shape-rendering="auto">
<g>
	<g>
		<g>
			<path fill="#000000" d="M172.3,220.5c0-5.7-2-10.3-6.1-13.8c-4-3.5-11.1-6.7-21.3-9.8c-17.7-5.1-31-11.1-40.1-18.1     s-13.6-16.6-13.6-28.7s5.2-22.1,15.6-29.8c10.4-7.7,23.6-11.6,39.7-11.6c16.3,0,29.6,4.3,39.9,13c10.3,8.7,15.2,19.3,14.9,32.1     l-0.2,0.6h-28.8c0-6.9-2.3-12.4-6.9-16.7c-4.6-4.2-11-6.4-19.3-6.4c-8,0-14.1,1.8-18.5,5.3c-4.3,3.5-6.5,8.1-6.5,13.6     c0,5,2.3,9.2,7,12.4c4.7,3.2,12.7,6.6,24.1,10.2c16.4,4.6,28.8,10.6,37.2,18s12.6,17.3,12.6,29.5c0,12.7-5,22.7-15,30.1     c-10,7.3-23.3,11-39.7,11c-16.2,0-30.3-4.2-42.3-12.5c-12-8.3-17.9-20-17.5-35l0.2-0.6h29c0,8.8,2.7,15.3,8.1,19.4     c5.4,4.1,12.9,6.2,22.6,6.2c8.1,0,14.3-1.7,18.6-5C170.2,230.6,172.3,226.1,172.3,220.5z"/>
			<path fill="#000000" d="M336.7,208.7l0.2,0.6c0.3,16-4.6,28.6-14.6,38c-10,9.4-23.9,14.1-41.7,14.1c-17.9,0-32.4-5.7-43.5-17.2     s-16.7-26.3-16.7-44.3v-29.5c0-18,5.4-32.8,16.3-44.3s25-17.3,42.4-17.3c18.3,0,32.7,4.7,43,14.1c10.3,9.4,15.4,22.2,15.1,38.5     l-0.2,0.6h-29c0-9.8-2.3-17.3-7-22.5c-4.7-5.2-12-7.8-21.9-7.8c-8.9,0-16,3.6-21.2,10.8c-5.2,7.2-7.8,16.4-7.8,27.7v29.6     c0,11.3,2.8,20.6,8.3,27.9c5.5,7.2,12.9,10.8,22.3,10.8c9.3,0,16.2-2.5,20.6-7.5c4.4-5,6.7-12.4,6.7-22.3H336.7z"/>
			<path fill="#000000" d="M437.7,227.3h-52.1l-10.1,32h-30.1l51.1-148.4H427l50.9,148.4h-30.1L437.7,227.3z M392.9,203.9h37.4     L412,145.6h-0.6L392.9,203.9z"/>
			<path fill="#000000" d="M611.7,259.3H582l-59.9-101.4l-0.6,0.1v101.3h-29.8V110.9h29.8l59.9,101.3l0.6-0.1V110.9h29.7V259.3z"/>
		</g>
		<g>
			<path fill="#000000" d="M135.3,314.8l88.1,224.6h1.1l88.1-224.6h47.8v276.5h-37.4V481.9l3.8-112.4l-0.9-0.2l-89.6,222h-24.9     l-89.2-221.4l-0.9,0.2l3.6,111.8v109.4H87.5V314.8H135.3z"/>
			<path fill="#000000" d="M593.1,463.1H466.5v98.7h146v29.4H429.1V314.8h181.3v29.4H466.5v89.4h126.6V463.1z"/>
		</g>
	</g>
</g>
</svg>
</svg>

</svg>
